<svg width="203" height="204" viewBox="0 0 203 204" fill="none" xmlns="http://www.w3.org/2000/svg">
<path d="M8.69714 62.3362L8.69713 155.646L8.69713 184.479C8.69713 190.864 13.8738 196.041 20.2595 196.041L98.815 196.041C105.201 196.041 110.377 190.864 110.377 184.479L110.377 155.646M8.69714 62.3362L110.377 62.3362M8.69714 62.3362L59.6897 11.3436C61.8581 9.17521 64.7991 7.95704 67.8656 7.95704L164.757 7.95704M110.377 62.3362L164.757 7.95704M110.377 62.3362L110.377 155.646M164.757 7.95704L164.757 101.267M110.377 155.646L164.757 101.267M110.377 155.646L136.748 182.017C141.263 186.532 148.584 186.533 153.1 182.017L191.127 143.99C195.643 139.474 195.643 132.153 191.127 127.638L164.757 101.267" stroke="#151515" stroke-width="15.8983"/>
</svg>
